<svg xmlns="http://www.w3.org/2000/svg" viewBox="143 364 732 275"><path d="M332.82,377.62a10.07,10.07,0,0,0-2.1-5.55q-1.77-2.18-5.46-2.17H214.94a12.73,12.73,0,0,0-7,2.17,27.35,27.35,0,0,0-6.17,5.55,45.48,45.48,0,0,0-5.06,7.49,56.12,56.12,0,0,0-3.62,8L150.42,510.25a54.41,54.41,0,0,0-2.17,8,27.13,27.13,0,0,0-.46,7.52,10.17,10.17,0,0,0,2.11,5.58q1.75,2.21,5.45,2.21h12.44a78.47,78.47,0,0,0,4.47-9.61q2.79-7.23,5.54-14.47l3.74-9.78.42-1.1c2.58-6.71,5.23-13.63,7.89-20.43,2.53-6.49,5.32-13.55,8.78-22.23,1.32-3.3,2.68-6.64,4-9.87l1.21-2.94c.43-1.06.88-2.12,1.32-3.17l.6-1.41a2.52,2.52,0,0,1,1.85-1.5l.11,0a2.42,2.42,0,0,1,.47,0,2.51,2.51,0,0,1,2.4,1.76,2.74,2.74,0,0,1,.08,1.75c-.2.66-.41,1.33-.63,2l-2.14,6.39c-1.83,5.49-3.73,11.15-5.63,16.72-2.24,6.57-4.33,12.61-6.42,18.46q-4.25,12-8.55,23.95-2.85,8-5.71,16c-1.22,3.4-2.2,6.55-3,9.59h13.09a12.59,12.59,0,0,0,7-2.21,27.82,27.82,0,0,0,6.18-5.58,45.34,45.34,0,0,0,5.06-7.52,58,58,0,0,0,3.62-8L259.88,383a22.51,22.51,0,0,1,1.42-3.15,17.35,17.35,0,0,1,2-3,10.14,10.14,0,0,1,2.46-2.2,5.07,5.07,0,0,1,2.79-.86,2.57,2.57,0,0,1,2.14.86,4.1,4.1,0,0,1,.82,2.2,10.16,10.16,0,0,1-.2,3,26,26,0,0,1-.85,3.15L205.74,560.25a71.24,71.24,0,0,0-2.66,9.33,54.38,54.38,0,0,0-1.18,9.33,33.63,33.63,0,0,0,.69,8.44,15.64,15.64,0,0,0,3,6.54l27.13,33.65a9.94,9.94,0,0,0,1.88,1.77,4.31,4.31,0,0,0,2.6.79,6.07,6.07,0,0,0,4.07-1.68,20,20,0,0,0,3.48-4.1,37.41,37.41,0,0,0,2.76-5.1c.79-1.77,1.42-3.32,1.91-4.63L330.19,393.1a52.61,52.61,0,0,0,2.17-8A26.16,26.16,0,0,0,332.82,377.62Z" fill="#ff5722"/><path d="M208.26,439.81c-.19.63-.38,1.27-.59,1.9-2.59,7.69-5.15,15.4-7.77,23.09q-3.15,9.24-6.41,18.43-7.11,20-14.26,39.91c-1.21,3.4-2.31,6.84-3.21,10.33,0,0,0,.07,0,.11a52,52,0,0,0-1.9,13.87,24.3,24.3,0,0,0,3,11.82,20.68,20.68,0,0,0,5.06,5.85,45,45,0,0,0,7.45,4.83c.29.15.59.28.93.44-1-.22-1.89-.45-2.82-.63a36.2,36.2,0,0,0-17,.42,20.12,20.12,0,0,0-8.23,4.37,33,33,0,0,0-4.24,4.83,43.28,43.28,0,0,0-4.81,8.24.09.09,0,0,1-.08.07c.15-.61.32-1.22.47-1.85a41.31,41.31,0,0,0,1.19-13.61,18.91,18.91,0,0,0-2.6-7.74,32.11,32.11,0,0,0-8.11-9.18,41.09,41.09,0,0,0-7.84-4.91l.84.22.89.22a38.88,38.88,0,0,0,8,1,20.76,20.76,0,0,0,9.51-1.91,25.46,25.46,0,0,0,7.57-5.66,42.59,42.59,0,0,0,5.75-7.92c.54-.92,1.06-1.84,1.55-2.77a81.22,81.22,0,0,0,4-8.71c3.12-8.07,6.18-16.16,9.28-24.25,2.76-7.17,5.51-14.35,8.31-21.52Q196.54,468,201,456.9c1.7-4.28,3.46-8.54,5.21-12.8.62-1.53,1.27-3,1.91-4.56l.11,0C208.22,439.62,208.29,439.72,208.26,439.81Z" fill="#1c1c1c"/><path d="M374.39,490a20.69,20.69,0,0,0-.24,2.33,4.49,4.49,0,0,0,1.47,3.74c1,.78,2.57,1.16,4.78,1.16H387l-3.19,18h-9.56q-10.29,0-15.87-4.29t-5.58-14.1a39.71,39.71,0,0,1,.61-7.23l4.42-25.12h-9.07L352,446.9H361L364,430.1h21.09l-2.94,16.8h13.6l-3.06,17.65H378.93Z" fill="#1c1c1c"/><path d="M466,451.86q5.58,5.7,5.58,16a43.27,43.27,0,0,1-.74,7.72l-7,39.71H443L449.51,478a21.07,21.07,0,0,0,.37-3.68q0-5.27-2.94-8.09t-8.21-2.82a15.59,15.59,0,0,0-10,3.37,18.67,18.67,0,0,0-6.07,9.75l-6.74,38.73H394.85l15.93-90.7h21.09l-6.13,34.56a29.34,29.34,0,0,1,24.76-13Q460.42,446.16,466,451.86Z" fill="#1c1c1c"/><path d="M508.84,446.9l-12.13,68.39h-21l12-68.39Zm-15.57-26.54a15,15,0,0,1,10.42-3.74,11.44,11.44,0,0,1,7.78,2.51,8.3,8.3,0,0,1,2.88,6.56,11.86,11.86,0,0,1-4.1,9.13,14.77,14.77,0,0,1-10.36,3.74c-3.35,0-6-.84-7.9-2.51a8.13,8.13,0,0,1-2.88-6.44A11.92,11.92,0,0,1,493.27,420.36Z" fill="#1c1c1c"/><path d="M581.22,451.86q5.56,5.7,5.57,16.12a42.62,42.62,0,0,1-.73,7.6L579,515.29H558.11l6.5-37.26a22.61,22.61,0,0,0,.37-3.8c0-3.43-1-6.09-3-8s-4.7-2.82-8.21-2.82a15.41,15.41,0,0,0-10.72,4.05c-3,2.69-4.89,6.54-5.7,11.52L531,515.29H509.94l12-68.39H543l-2.21,12.25a29.34,29.34,0,0,1,24.76-13Q575.64,446.16,581.22,451.86Z" fill="#1c1c1c"/><path d="M635.23,480.36l21.21,34.93H632.17l-15.08-29.66-5.27,29.66H590.74l15.93-90.7h21.09l-8.58,48.9,25-26.59h24.64Z" fill="#1c1c1c"/><path d="M742.64,446.9l-12,68.39H709.55l2.2-12.5a28.28,28.28,0,0,1-10.42,9.68A29.38,29.38,0,0,1,687,516q-9.93,0-15.5-5.7t-5.58-16.12a42.68,42.68,0,0,1,.74-7.6l7-39.71h21L688,484a20.51,20.51,0,0,0-.36,3.68c0,3.52,1,6.23,2.94,8.15s4.7,2.88,8.21,2.88a15.4,15.4,0,0,0,10.72-4q4.49-4.05,5.7-11.52v.49l6.5-36.77Z" fill="#ff5722"/><path d="M687,516.57c-6.74,0-12.08-2-15.89-5.86s-5.73-9.44-5.73-16.5a43.75,43.75,0,0,1,.74-7.7l7.07-40.16h22.06l-6.73,37.78a19.38,19.38,0,0,0-.36,3.58c0,3.35.93,6,2.78,7.77s4.48,2.72,7.83,2.72a15,15,0,0,0,10.36-3.9c2.88-2.6,4.74-6.37,5.53-11.21h.09l6.49-36.75h22l-12.2,69.48H708.9l1.89-10.73a29,29,0,0,1-9.2,7.85A30.07,30.07,0,0,1,687,516.57Zm-12.9-69.13-6.91,39.26a42.59,42.59,0,0,0-.73,7.51c0,6.77,1.83,12.06,5.43,15.74s8.68,5.54,15.11,5.54A29,29,0,0,0,701.07,512a28,28,0,0,0,10.23-9.5l1.46-2.28-2.57,14.53h20L742,447.44H722.13l-6.41,36.32h-.09c-.87,4.85-2.82,8.67-5.78,11.35a16,16,0,0,1-11.09,4.18c-3.64,0-6.53-1-8.59-3s-3.1-4.89-3.1-8.54a20.53,20.53,0,0,1,.37-3.77l6.51-36.5Z"/><path d="M815.14,451.86q5.58,5.7,5.58,16.12a42.68,42.68,0,0,1-.74,7.6l-7.11,39.71H792L798.53,478a21.61,21.61,0,0,0,.37-3.8q0-5.14-2.94-8t-8.21-2.82A15.43,15.43,0,0,0,777,467.49c-3,2.69-4.88,6.54-5.7,11.52L765,515.29H743.87l12-68.39H777l-2.21,12.25a29.34,29.34,0,0,1,24.76-13Q809.56,446.16,815.14,451.86Z" fill="#ff5722"/><path d="M813.33,515.83H791.39L798,477.94a21.54,21.54,0,0,0,.36-3.71c0-3.26-.94-5.81-2.78-7.58S791.1,464,787.75,464a15,15,0,0,0-10.37,3.91c-2.87,2.6-4.73,6.37-5.53,11.21l-6.45,36.73H743.22l12.2-69.48h22.19l-1.91,10.59a29.88,29.88,0,0,1,23.81-11.32c6.82,0,12.21,2,16,5.86h0c3.8,3.89,5.73,9.44,5.73,16.5a42.68,42.68,0,0,1-.75,7.69Zm-20.65-1.08h19.74l7-39.27a42.48,42.48,0,0,0,.73-7.5c0-6.77-1.83-12.06-5.43-15.74s-8.72-5.54-15.24-5.54a28.81,28.81,0,0,0-24.31,12.76l-1.44,2.13,2.55-14.15h-20l-11.82,67.31h20l6.3-35.83c.83-5.08,2.8-9.07,5.87-11.83a16,16,0,0,1,11.09-4.19c3.64,0,6.52,1,8.58,3s3.11,4.79,3.11,8.36a22.57,22.57,0,0,1-.38,3.89Z"/><path d="M858,446.9l-12.14,68.39h-21l12-68.39Zm-15.57-26.54a15,15,0,0,1,10.42-3.74,11.44,11.44,0,0,1,7.78,2.51,8.3,8.3,0,0,1,2.88,6.56,11.89,11.89,0,0,1-4.1,9.13A14.77,14.77,0,0,1,849,438.56q-5,0-7.91-2.51a8.17,8.17,0,0,1-2.88-6.44A11.93,11.93,0,0,1,842.41,420.36Z" fill="#ff5722"/><path d="M846.3,515.83H824.24l12.2-69.48h22.18Zm-20.77-1.08h19.86l11.94-67.31h-20ZM849,439.1a12.21,12.21,0,0,1-8.26-2.64,8.71,8.71,0,0,1-3.07-6.85,12.5,12.5,0,0,1,4.35-9.65h0a15.58,15.58,0,0,1,10.78-3.88,12,12,0,0,1,8.14,2.65,8.83,8.83,0,0,1,3.06,7,12.44,12.44,0,0,1-4.28,9.53A15.36,15.36,0,0,1,849,439.1Zm-6.26-18.34h0a11.48,11.48,0,0,0-4,8.85,7.57,7.57,0,0,0,2.69,6A11.15,11.15,0,0,0,849,438a14.31,14.31,0,0,0,10-3.6,11.4,11.4,0,0,0,3.93-8.73,7.72,7.72,0,0,0-2.69-6.15,11,11,0,0,0-7.43-2.38A14.58,14.58,0,0,0,842.77,420.76Z"/></svg>
