<svg id="Layer_1" data-name="Layer 1" xmlns="http://www.w3.org/2000/svg" viewBox="305 245 390 505"><path d="M686.72,267.09a19.21,19.21,0,0,0-4-10.57c-2.25-2.76-5.71-4.12-10.38-4.12h-210A24.13,24.13,0,0,0,449,256.52a52.55,52.55,0,0,0-11.76,10.57,87.58,87.58,0,0,0-9.63,14.25,107.41,107.41,0,0,0-6.88,15.2l-81.16,223a102.62,102.62,0,0,0-4.12,15.26,50.9,50.9,0,0,0-.88,14.31,19.54,19.54,0,0,0,4,10.63q3.36,4.18,10.37,4.19h23.69a148.14,148.14,0,0,0,8.5-18.28q5.33-13.77,10.55-27.55,3.56-9.3,7.12-18.6l.8-2.1c4.9-12.76,9.95-25.93,15-38.88,4.82-12.35,10.14-25.78,16.72-42.3,2.51-6.29,5.1-12.64,7.63-18.79l2.3-5.6c.83-2,1.68-4,2.52-6l1.13-2.69a4.82,4.82,0,0,1,3.52-2.85l.21,0a4.56,4.56,0,0,1,.9-.08,4.79,4.79,0,0,1,4.57,3.36,5.27,5.27,0,0,1,.14,3.32c-.38,1.27-.76,2.54-1.18,3.79L449,402.73c-3.5,10.44-7.1,21.22-10.72,31.82-4.27,12.5-8.25,24-12.22,35.14q-8.1,22.8-16.27,45.57-5.44,15.19-10.88,30.4c-2.31,6.47-4.18,12.46-5.71,18.24h24.91a24,24,0,0,0,13.38-4.19,53.86,53.86,0,0,0,11.76-10.63,86.86,86.86,0,0,0,9.63-14.31,111.69,111.69,0,0,0,6.87-15.26L547.91,277.4a42.76,42.76,0,0,1,2.69-6,34.67,34.67,0,0,1,3.82-5.69,19.76,19.76,0,0,1,4.68-4.19,9.8,9.8,0,0,1,5.32-1.63,4.89,4.89,0,0,1,4.06,1.63,7.68,7.68,0,0,1,1.57,4.19,19.29,19.29,0,0,1-.38,5.69,46.25,46.25,0,0,1-1.62,6L444.87,614.67a132.4,132.4,0,0,0-5.07,17.76,103.75,103.75,0,0,0-2.25,17.76,63.82,63.82,0,0,0,1.32,16.06,29.51,29.51,0,0,0,5.62,12.44l51.64,64a19.18,19.18,0,0,0,3.57,3.38,8.25,8.25,0,0,0,4.95,1.49,11.6,11.6,0,0,0,7.75-3.18A37.58,37.58,0,0,0,519,736.6a70.24,70.24,0,0,0,5.26-9.69c1.5-3.38,2.7-6.32,3.63-8.82l153.8-421.55a101.14,101.14,0,0,0,4.14-15.2A50,50,0,0,0,686.72,267.09Z" fill="#ff5722"/><path d="M449.66,385.44c-.36,1.21-.73,2.42-1.13,3.61-4.92,14.65-9.8,29.32-14.79,44q-6,17.58-12.19,35.07-13.53,38-27.15,76c-2.3,6.46-4.38,13-6.1,19.65a1.46,1.46,0,0,1-.05.2c-2.22,8.66-3.77,17.42-3.6,26.4.16,7.94,1.72,15.54,5.72,22.5A39.31,39.31,0,0,0,400,623.93a86,86,0,0,0,14.19,9.21c.55.27,1.12.52,1.78.84-1.87-.42-3.61-.87-5.38-1.21-10.82-2.12-21.59-2.21-32.29.8a38.49,38.49,0,0,0-15.68,8.31,63,63,0,0,0-8.06,9.2,83.46,83.46,0,0,0-9.16,15.69.2.2,0,0,1-.15.13c.3-1.18.62-2.34.91-3.52a78.8,78.8,0,0,0,2.25-25.91,36.05,36.05,0,0,0-4.94-14.74A61.3,61.3,0,0,0,328,605.27a77.41,77.41,0,0,0-14.93-9.34c.54.14,1.07.29,1.61.42l1.69.42a74.38,74.38,0,0,0,15.3,1.89,39.43,39.43,0,0,0,18.1-3.64,47.83,47.83,0,0,0,14.4-10.76,82,82,0,0,0,11-15.09q1.53-2.59,3-5.27a153.2,153.2,0,0,0,7.51-16.56c5.94-15.36,11.76-30.77,17.66-46.15,5.25-13.66,10.48-27.32,15.81-41q8.26-21.17,16.7-42.27c3.24-8.14,6.59-16.24,9.91-24.34,1.19-2.91,2.42-5.79,3.64-8.69l.21,0C449.58,385.08,449.7,385.28,449.66,385.44Z" fill="#1c1c1c"/></svg>